<svg 
    xmlns="http://www.w3.org/2000/svg" 
    xmlns:xlink="http://www.w3.org/1999/xlink" 
    version="1.1" 
    id="Layer_1" 
    x="0px" 
    y="0px" 
    viewBox="0 0 207 207" 
    style="enable-background:new 0 0 207 207;" 
    xml:space="preserve"
    class="logo-heading"
> 
    <style type="text/css"> 
        .st0 {
            fill: white;
        } 
    </style> 

    <g> 
        <polygon 
            class="st0" 
            points="179,0 75.4,103.5 89.5,117.6 159.1,48 159.1,187.1 139.2,187.1 139.2,96 95.8,139.4 89.5,145.7 0,56.2 0,207 59.7,207 59.7,172.1 39.8,152.2 39.8,187.1 19.9,187.1 19.9,104.2 89.5,173.8 119.3,144 119.3,207 179,207 ">
        </polygon> 
        <!-- <path 
            class="st0" 
            d="M378.7,162.9v-59.5c0-9.8-4.3-16.4-15.1-16.4c-8.9,0-17.2,6.1-21.1,12.1v63.9h-19.8v-59.5 c0-9.8-4.2-16.4-14.9-16.4c-8.9,0-17,6.2-21.1,12.1v63.9h-19.8V71.6h19.8v12.3c4-5.5,15.9-14.5,29.8-14.5 c13.6,0,21.9,6.8,24.9,16.6c5.1-8.1,17.2-16.6,30.9-16.6c16.6,0,26.2,9.1,26.2,27.6v66L378.7,162.9L378.7,162.9z">
        </path>  -->
        <!-- <path 
            class="st0" 
            d="M484.5,71.6v12.7c-7.4-9.8-17.7-14.9-29.2-14.9c-23.4,0-40.4,18.3-40.4,47.8c0,30.2,17.2,48,40.4,48 c11.9,0,22.3-5.7,29.2-14.7v12.5h19.8V71.6H484.5z M484.5,135.3c-4.3,6.8-14.2,12.3-23.4,12.3c-15.8,0-25.8-12.7-25.8-30.4 c0-17.6,10-30.2,25.8-30.2c9.2,0,19.1,5.5,23.4,12.3V135.3z">                        
        </path>  -->
        <!-- <polygon 
            class="st0" 
            points="585.7,162.9 562.1,129.3 538.3,162.9 516.1,162.9 549.6,116 518.1,71.6 540.4,71.6 561.9,102.4 583.6,71.6 605.9,71.6 574.4,116 607.9,162.9 "> 
        </polygon>  -->
        <!-- <polygon 
            class="st0" 
            points="701.3,162.9 680,96 658.9,162.9 638.1,162.9 609.8,71.6 630.4,71.6 649.6,138 671.3,71.6 688.9,71.6 710.4,138 729.6,71.6 750.4,71.6 722.1,162.9 ">
        </polygon>  -->
        <!-- <path 
            class="st0" 
            d="M847.6,118.9c0-28.7-17.3-49.5-44.7-49.5c-27,0-46.2,21.4-46.2,47.8c0,28.9,20.2,48,47.7,48 c14.3,0,27.7-4.7,37-13.4l-9-13.1c-6.6,6.6-17,10.2-26,10.2c-17.2,0-27.4-11.5-28.9-25.1h70.2V118.9z M777.3,109.6 c0.7-10.9,8.7-24,25.5-24c17.9,0,25.3,13.2,25.8,24H777.3z">
        </path>  -->
        <!-- <rect 
            x="865.3" 
            y="36.8" 
            class="st0" 
            width="19.8" 
            height="126.1">
        </rect> 
        <rect 
            x="906.9" 
            y="36.8" 
            class="st0" 
            width="19.8" 
            height="126.1">
        </rect>  -->
    </g> 
</svg> 
